<svg id="Calque_1" data-name="Calque 1" xmlns="http://www.w3.org/2000/svg" viewBox="0 0 432 432"><defs><style>.cls-1{fill:#b13133;}.cls-2{fill:#282828;}.cls-3{fill:#778a28;}</style></defs><title>11_100_REDO_January_2017_LoveSVG</title><path class="cls-1" d="M128.3,326.27c3.83-4.56,7.8-38.75,9.45-50.67.34-2.46-1.28-11,1.1-22.36,1-4.85,3-9.15,7.78-10.21,8.76-1.94,13.18,8.47,12.38,15.93-.43,4.05-3.82,5.4-7.89,5.78-5.18.5-4.9,0-4.91,1.33-.13,10.61,2.33,22.14,4.11,27,1.07,2.91,3.51,7.77,6,9.41a.87.87,0,0,0,1.15-.05c3.27-2.66,4.85-14.18,7.71-29.61a1.92,1.92,0,0,1,2.43-1.71A1.38,1.38,0,0,1,169,272.9c-1.2,7.66-3.54,23.69-6.71,29-2.71,4.58-7.77,4.31-12.1.85-7.89-6.31-9.61-15.07-10.23-15.41-1,3.24-3.56,33.11-7.85,39.77a4.89,4.89,0,0,1-6.65,1.57c-2.57-1.45-4.45-4.9-5.57-7.61-9.48-22.92,2.44-54.17,3.72-74-.41.05-.51.36-.65.57-4.73,6.79-8.41,19.56-10.24,27.64-1.76,7.76-2,12.71-3.16,18.8a2.84,2.84,0,0,1-2,2.53c-3.11.89-4.69-1.28-6-4.19-7.28-16.58-5.29-32.93-5.29-46.71-.89.23-5.39,11.76-6.55,31.13-1.13,18.95,1.65,22.27-2.37,23.15a4.8,4.8,0,0,1-4-.95c-4.07-3-8.06-10.6-9.84-15.64A52.12,52.12,0,0,1,70.87,270c-.54-6.91,0-20.29,1.7-25.4,1.22-3.6,7.59-3.18,7.62.45.06,7.07-4.06,26.48,4.63,46.58a3.31,3.31,0,0,0,.59,1.08c.68-1.24-1-24.3,6.52-48.48a34.83,34.83,0,0,1,1.69-4.43,5.64,5.64,0,0,1,10.36,0c2.15,5.87-.67,15.59,1.86,39.38.6,5.65.73,6.23,1,6.82,2.31-12.31,4.77-23.6,10.28-36.26a32.34,32.34,0,0,1,4.24-7.47c3-3.42,9.13-2.94,10.28,2,2.2,9.5-8.11,39-7.13,66.41.16,4.29.85,11.07,3.06,14.76A2,2,0,0,0,128.3,326.27ZM155,259.17a11.35,11.35,0,0,0-4.65-10.87c-.61-.38-.66-.37-1.05.26-2.1,3.33-2.59,10.14-2.89,12.92-.05.46.11.64.59.6C151.15,261.7,154.37,262.32,155,259.17Z"/><path class="cls-1" d="M356.45,299.2a26.3,26.3,0,0,0,1.16-4.84,1.51,1.51,0,0,1,1.42-1.45c1-.17,2.31.19,2.34,1.38a14.86,14.86,0,0,1-1.16,6.52c-1,2.32-4.61,3-7.14.69-2.89-2.65-4.44-8-5.4-11.82-1.51-6.1-1.92-14.72-1.94-21-.79,1-3.75,21.19-9.07,28.21a6.48,6.48,0,0,1-7.47,2.43c-3-.91-5.76-3.77-7.65-6.31-5.92-8-7.78-16.53-8.52-26.52-.08-1.11.3-.66-5-.81-1.17,0-.34.51-1.19,8.11s-2.93,18.41-8.19,24.11A9.85,9.85,0,0,1,286,300c-4.45-2.42-9.64-8.92-11.16-17.62s-1-15.19,0-23.13a3.28,3.28,0,0,1,2.25-3.09,4.65,4.65,0,0,1,4.57.71c1.65,1.33,1.27,4.44,1,8.09a67.54,67.54,0,0,0,2.6,24.32c.88,2.88,2.29,6.37,4.66,8.22a2.53,2.53,0,0,0,3.6.11c2.95-2,5.06-6.77,6.23-10.17,2.44-7.13,3-13.66,3.28-20.28.1-2.07.11-1.75-1-1.95-13.44-2.37-24.59-11.53-23.91-25.09.46-9.28,7.92-15,15.7-11.25C302.51,233,306.24,247,307,256.73c.45,5.56,0,5.79,1,5.81,1.39,0,2.78.1,4.16.14,1.1,0,.45.54.84-6.91a59,59,0,0,1,.77-7.5,5.65,5.65,0,0,1,1.6-3.54c2-1.59,6.76-1.22,6.65,2.21-.13,3.94-1,11.8-.26,20.41.6,7.26,3.87,24.81,9.71,29.14a.6.6,0,0,0,.86,0c6.67-5.52,11.87-41.13,13.79-51.66a3.27,3.27,0,0,1,3.56-3.08c8.05-.27,3.19,11.62,3.69,40.84.08,4.75.27,12.19,2.86,16.53C356.25,299.14,356.33,299.15,356.45,299.2Zm-53.92-44.67c-.87-7.29-2.88-15.3-7.89-20.61a11.85,11.85,0,0,0-3.09-2.46c-2.14-1.14-3.76-.82-5.31,1.06-5.8,7-3.22,26.13,16.27,29.49.47.08.56-.14.53-.54C302.88,259.45,303,258.71,302.53,254.53Z"/><path class="cls-1" d="M259.58,269c-1.63,9.19-3.47,21-6.6,26.77-7,12.92-28.63-.26-27.49-40.34.07-2.6.37-9.46,1.62-11.73a4.11,4.11,0,0,1,5.82-1.2c3.43,2.67-1.54,14.3,3.64,36.71,1.18,5.12,3.59,14.52,7.9,17.51,1.41,1,2.27.9,3.48-.34,4.08-4.15,6.53-19,7.5-24.87,3.72-22.13,1.14-24.07,3.75-25.4a5.53,5.53,0,0,1,5.55.1c1.73,1,2.09,3.73,2.32,5.82,1.93,17.66,3.19,43.85-1,61.62-2.58,11.05-8.5,21.36-18.55,27.1-11.3,6.44-24.85,2.67-27.34-9.95-2.42-12.24,8-22.15,16.76-16.23,2.17,1.47-.31,3.73-4.36,1.5-4.32-2.37-11.54,6.67-7.3,16.75,3,7.06,10.62,10.14,18.23,5.07,7.21-4.8,10.82-12.64,13.05-21.08,4.16-15.78,3.86-30.66,3.18-47.05,0-.25,0-.51-.07-.76Z"/><path class="cls-1" d="M202.34,300.5c.24-.76.47-1.52.71-2.28.78-2.43,1-2.08.19-2.92a7.25,7.25,0,0,1-1.17-1.42,1.31,1.31,0,0,1,.71-2.1c2.73-1.09,5.36,1.71,8.47,4.79,1.3,1.28.09,3.19-3.05,2.55-1.09-.22-.54-.62-2.75,5.13-.47,1.21.13.65,5.07,8.08.21.33.44.43.79.19,1.61-1.07,2.71-1.94,4.42-1.22,1,.41,1.06,1.1.39,1.91-1.52,1.83-5.66,5.5-7.57,6.42-1.56.74-3.74.11-3-1.64.64-1.54,1.81-1.83,1.27-2.37a51.88,51.88,0,0,1-4.05-5.06,1.55,1.55,0,0,0-.22-.15c-.48.38-2.19,4-6.41,6.41-15.66,9-32.61-14-11.07-39a1.63,1.63,0,0,0,.38-1.79,86.76,86.76,0,0,1-3.5-15.26c-5.55-43.17,31.23-37.46,28.87-10.66-1.08,12.27-9.47,20.9-18.42,30.43a1.26,1.26,0,0,0-.28,1.61,124.86,124.86,0,0,0,10,18.23A1.13,1.13,0,0,0,202.34,300.5Zm-13.52-27a3.54,3.54,0,0,0,.31-.24c5.63-6.1,10.71-12.08,12.56-20.12a24.5,24.5,0,0,0-1.51-16c-5.77-12.79-23.11,1.26-11.56,35.91A4.43,4.43,0,0,0,188.82,273.47Zm-.12,11.83c-.24,0-.32.23-.42.39-11.63,16.6-4.41,32.15,3.28,29.77,4-1.23,6.24-4.32,8.16-8a1.3,1.3,0,0,0-.12-1.49A131.19,131.19,0,0,1,189.09,286C189,285.78,188.94,285.48,188.7,285.3Z"/><path class="cls-2" d="M71.36,205.38a1.82,1.82,0,0,0-1.91.61,1.9,1.9,0,0,0,0,2.49c.24.19.71.16.71-.13a1.09,1.09,0,0,1,.09-.41c0-.55.37-1.36.94-1.32a1.31,1.31,0,0,1,.8,1.8A4.69,4.69,0,0,1,68,211.26c-2.34.4-4.72-.36-7.27-.89,0-3.66.13-22.4.74-26,.14-.88,1-1,.82-1.46a1,1,0,0,0-.86-.58,23.59,23.59,0,0,0-5.38-.13c-.11.05-.73,0-.87.47s.71.7.89,1.72a22.19,22.19,0,0,1,0,3.88c-.49,27.45.33,21.21-1.93,24.21-.48.48.1,1,.6.61a6.62,6.62,0,0,1,4.82-.91c2.14.31,3.18.45,4.82.74,6.36,1.1,9.85-3.74,8.5-6.21A3.69,3.69,0,0,0,71.36,205.38Z"/><path class="cls-2" d="M83.6,182.21c-6.65-.21-8.37,10-8.46,16.84.18,2,.06,6.27,2.38,9.8a7.74,7.74,0,0,0,5.77,4,6.36,6.36,0,0,0,4.6-1c2-1.41,3.28-3,4.39-6.77a31.05,31.05,0,0,0,.73-13C92,184.64,88.4,182.21,83.6,182.21Zm3.84,28.38a2.87,2.87,0,0,1-4.28-.44c-2.06-3.25-1.64-7.59-1.69-11A67.62,67.62,0,0,1,82.3,190a18.71,18.71,0,0,1,.8-3.73c.69-1.62,1.48-2.68,3.32-1.84,3.33,1.37,4.78,4.61,5.12,8.2C91.82,196.61,91.16,207.28,87.44,210.59Z"/><path class="cls-2" d="M108.46,182.3a.77.77,0,0,0-.56.39c-.12.27,0,.46.3.65.87.54.89.62-4.17,21.82,0,0-.07,0-.13,0-.2-.4-.48-2.51-2-7.66-2-7-2.62-9.55-3.23-12.6-.18-1,0-1.33.47-1.65s.28-.7-.17-.87-6.07-.07-6.57,0a.42.42,0,0,0-.2.67,3.82,3.82,0,0,1,1.82,2.33c4.08,15.61,4.62,19,6.64,25,.07.14,0,.14,0,.31a4.19,4.19,0,0,0-2.47,0,2.28,2.28,0,0,0-1.52,1.58l-.09.46c0,.34.19.46.57.34a3.56,3.56,0,0,1,3.43-.69c1.28.43,3.52,1.06,4.81.65,2-.48,2.22-3.06,1.35-3.21-.26,0-.35,0-.52.48a1.52,1.52,0,0,1-1.82.95c0-.15-.15.48.91-3.71s4.45-20.61,4.51-21c.61-4,1.46-2.91,2-3.58.15-.2.22-.49,0-.61A12.44,12.44,0,0,0,108.46,182.3Z"/><path class="cls-2" d="M131.16,208.07c-.13-.12-.43,0-.53.13-.77,1-1.47,4.44-9.32,2.78,0-4.21,0-6.14.08-9.07a2.87,2.87,0,0,1,1.74.35c.83.69.71,2.43,1.52,2.43.36,0,.39-.31.43-.7.19-2.15.87-6.51-.78-5.25-.44.33-1,1.67-2.86,1.35v-.87c.33-13.84.08-14.46.47-14.91s2.21-.28,4.21-.28a4.34,4.34,0,0,1,1.26.22c1,.3,1,1.06,1.22,1.93a8.43,8.43,0,0,1,.23,1.26c0,.48.24.84.72.84a.68.68,0,0,0,.69-.43c.19-.19.09-.26.18-.61.18-3.57.62-5-1.61-5h-5.94c-8.21-.11-8-.25-8.42,0-.16.11-.29.54-.15.67a1.4,1.4,0,0,0,.84.46c1.87.55,1.52,2.16,1.46,14.67,0,9.51,0,7.87-.24,13a9.82,9.82,0,0,0-1.26.4c-1,.41-1.35,1.33-1.17,1.51.69.52,1.22-.72,3.08-.65,3.61.28,6.11,1.12,10,.44a6.2,6.2,0,0,0,3.6-1.7,3.8,3.8,0,0,0,.91-2.56A.4.4,0,0,0,131.16,208.07Z"/><path class="cls-2" d="M172.16,183.21c.44-.22.42-.7.17-.83a17.21,17.21,0,0,0-3-.17c-.76,0-1.6.73-.72,1.17s.83,1.19-.87,9.42c-1.55,7.56-1.07,5.86-1.51,7-.28-1.6-.29-2.25-.57-3.64-.91-5.1-1.43-7.85-1.82-11.54-.16-1.9,1.49-2.26-2.65-2.26-1.84,0-2.54-.13-2.86.39s.36,1,.43,2.1-1.09,8.64-2.64,14.87c-.32-.78-3.15-12.22-3.56-14.71-.17-.92-.16-1.35.43-1.74.42-.24.24-.75-.22-.87-.23-.12.16-.08-5.42-.08a1.39,1.39,0,0,0-.78.13.58.58,0,0,0,0,1c1.23.66.88.49,4.17,16.1,1.09,5,1.46,6.23,2.52,11.1a1.08,1.08,0,0,0,0,.35,7.79,7.79,0,0,0-1.3.18c-1.6.27-1.84,2.13-1.13,2.06.39,0,.69-.43,1.58-.52a11.28,11.28,0,0,1,2.71.3c1.59.15,2,.2,2.48-.07s1.16-.67,1.34-1.19.11-1.05-.28-1.19-.61.33-.72.43a1.94,1.94,0,0,1-2.47.44c0-.06,4.37-23.09,4.43-23.09h.13c1.38,7.06,2.52,14.35,3.43,22.3a6.28,6.28,0,0,0-.7.18,2.1,2.1,0,0,0-1.43,1.65c0,.23.39.47.54.32a1.94,1.94,0,0,1,2-.67,4.81,4.81,0,0,1,1,.26c3.26,1.17,5.46-.61,4.91-2a.46.46,0,0,0-.83-.21,2.32,2.32,0,0,1-2.82,1c.18-.53,3.33-18.63,5.12-26.81A1.43,1.43,0,0,1,172.16,183.21Z"/><path class="cls-2" d="M192.51,210.94a1.21,1.21,0,0,1-1.08.43c-.88-4.56-1.06-6.9-1.87-11.59-.92-5.35-2.85-13.56-2.52-16.08.09-.64.7-1.12.57-1.43-.33-.74-7.47-.36-8.05-.15a.51.51,0,0,0-.15.87c2.09,1.27,1.09-1.55-5.38,28.29-1.88-.06-2.85.44-2.91,1.48a.3.3,0,0,0,.43.3c.08-.08,0,0,.13-.09a2.32,2.32,0,0,1,2.22-.17,3.86,3.86,0,0,0,2.17.35c1.26,0,2.17-.3,2.08-1.56h0a.42.42,0,0,0-.7-.31v0a1.6,1.6,0,0,1-1.73.31c.51-2,.58-2.57,1.21-5.34,2.81,0,5.52,0,8.38.09.42,2.54.49,3.11.82,5-1.18.69-2.15,1.91-1.35,1.91.59,0,.88-.55,1.83-.58,2.06-.08,3.74.4,4.86.21.86-.14,1.95-.76,1.78-1.75A.42.42,0,0,0,192.51,210.94Zm-15.19-6.6c1.31-5.73,2-8.38,4.43-17.79,1.33,6.17,2.37,12,3.21,17.79Z"/><path class="cls-2" d="M206,197.74c-4.2-5.48-7.56-8.39-6.25-12.93.38-1.44,1.73-1.67,3-1.08,1.68.79,2.27,4.53,3.4,5.77a1,1,0,0,0,1.74-.26,3.34,3.34,0,0,0,.35-1.3c0-.54.3-3.85.3-4.45,0-1.24-1.11-1.47-1.61-.76-.73,1.11-.68,2.54-1.86,1.26-2.38-2.52-6-2.49-8,.35-2.69,3.76-2,7.7.92,11.36a65.85,65.85,0,0,1,6.85,9.29,5.43,5.43,0,0,1,.52,4.25c-.43,1.65-2,2.28-3.56,2.24-3.91-.1-6.18-6.11-3.42-8.23a1,1,0,0,1,1.52.35c.63.85.18,1.44.6,1.61.53,0,.6-.24.78-.78A2.41,2.41,0,0,0,198.3,202c-4.35.58-5,10.94,3.63,11.16,4.87.12,8-2.94,8-7C209.91,205,207.9,200.19,206,197.74Z"/><path class="cls-2" d="M246.1,211.11a1.85,1.85,0,0,1-2.3.35c.4-7.67,0-25.32.72-27.32.28-.79.76-.67,1-1.17.12-.23.11-.61-.13-.72a32.72,32.72,0,0,0-4.32,0c-1.2,0-.77.48-4.6,13.67-.84-2.08-2.4-8-4.34-12.89a1.31,1.31,0,0,0-1.34-.91c-3.42.12-5.13-.08-5.3.17s-.15.5,0,.63c2,2.06,1.73-3.53,1.59,27.53v.91c-.35.08-.48,0-.7.09-2.2.55-2,3.14-1,2.08,1.92-1.78,9,1.56,8.28-2.51,0-.34-.57-.49-.71-.26a3.53,3.53,0,0,1-.24.34c-.2.14-.81,1-1.3.57.18-7.88.3-13,.52-22.35l.09.18c6,19.74,4.23,21.71,9.46,1.12.15-.38.06-.4.21-.78.29,7.1.28,14.06.05,21.22-1.2,0-1.58.18-2,.59a1.69,1.69,0,0,0-.59,1,.71.71,0,0,0,.13.48c.45.45,1.29-1.12,4-.26a6.12,6.12,0,0,0,1.52.26,1.73,1.73,0,0,0,2-1.52.55.55,0,0,0-.09-.52C246.52,210.78,246.26,210.89,246.1,211.11Z"/><path class="cls-2" d="M270.14,210.94a1.21,1.21,0,0,1-1.08.43c-.88-4.56-1.06-6.9-1.87-11.59-1.07-6.18-1.5-7.4-2.1-11.22a27.43,27.43,0,0,1-.42-4.86c.09-.64.7-1.12.57-1.43-.33-.74-7.47-.36-8.05-.15a.51.51,0,0,0-.15.87c.4.24,1.15.43,1,1.39-.15.38-.06.53-.21.91-2,7.65-5.6,23.41-6.16,26-1.88-.06-2.85.44-2.91,1.48a.3.3,0,0,0,.43.3c.08-.08,0,0,.13-.09a2.32,2.32,0,0,1,2.22-.17,3.84,3.84,0,0,0,2.16.35c1.27,0,2.18-.3,2.09-1.56h-.05a.41.41,0,0,0-.69-.31v0a1.61,1.61,0,0,1-1.74.31c.52-2,.59-2.57,1.22-5.34,2.81,0,5.52,0,8.37.09.43,2.54.5,3.11.83,5-1.18.69-2.15,1.91-1.35,1.91.59,0,.88-.55,1.83-.58,2.06-.08,3.74.4,4.86.21.86-.14,1.95-.76,1.78-1.75A.42.42,0,0,0,270.14,210.94ZM255,204.34c1.31-5.73,2-8.38,4.43-17.79,1.33,6.17,2.37,12,3.21,17.79Z"/><path class="cls-2" d="M288.24,190.15c-1.36-3.57-3-5.3-4.73-6.42a8.52,8.52,0,0,0-5.49-1.56,12.88,12.88,0,0,0-3.08.32.45.45,0,0,0-.11.65c.32.28.88.37,1.21,1,.73,1.45.26,16.61.26,26.9-.7.15-2.59.18-3.38,1.65-.15.37-.23.59,0,.7s.67-.11.87-.31a2.28,2.28,0,0,1,2.49-.45,8.2,8.2,0,0,0,6.1-.67c4.06-2.08,4.76-4.85,5.86-6.86a17.78,17.78,0,0,0,1.47-6A23.81,23.81,0,0,0,288.24,190.15Zm-4.34,18.64a10.2,10.2,0,0,1-2.09,1.19c-.15,0-.15,0-.3,0,.51-9.36,0-17,.26-25.3,3.25,1.69,5.39,6.6,5.94,10.25.17,1.62.25,2.21.31,3.34C288.16,201.52,286,207.23,283.9,208.79Z"/><path class="cls-2" d="M306.81,208.07c-.13-.12-.43,0-.52.13-.77,1-1.48,4.44-9.33,2.78,0-4.21,0-6.14.08-9.07a2.87,2.87,0,0,1,1.74.35c.83.69.71,2.43,1.52,2.43.36,0,.4-.31.43-.7.19-2.15.87-6.51-.78-5.25-.44.33-1,1.67-2.86,1.35v-.87c.34-13.84.08-14.46.47-14.91s2-.28,2.5-.28a12.37,12.37,0,0,1,2.36.07c1.7.35,1.54.81,2,2.88a5.31,5.31,0,0,0,.17.91.72.72,0,0,0,1.31,0c.19-.19.08-.26.17-.61.18-3.57.63-5-1.61-5h-5.94c-8.1-.12-8.46-.34-8.59.35-.09.27,0,.37.26.56.4.41,2,.11,2,2.6.26,6.09.05,19.3-.17,25.34-1.09.28-2.05.54-2.43,1.52-.25.52.44.71,1,.31,2.66-1.56,6.32.89,12.1-.13a6.17,6.17,0,0,0,3.6-1.7,3.75,3.75,0,0,0,.91-2.56A.4.4,0,0,0,306.81,208.07Z"/><path class="cls-2" d="M339.22,182.56c-1.19-.06-2.36-.13-3.51-.22a110.6,110.6,0,0,0-12.41.09.67.67,0,0,1-.22,0,.5.5,0,0,0-.26.91c.86.29,1.47.75,1.47,1.65.11,1.38-.3,24-.3,26.38-.32.13-.46.09-.65.22a2.68,2.68,0,0,0-1.26,1c-.53.66.24,1,.65.74,3.91-1.79,6.23,1.44,8.59-1.56a1.33,1.33,0,0,0,.31-.91c.06-.48-.34-.64-.74-.35-.63.47-1.12,1.13-1.91,1,.15-4,.17-5.37.3-8.89a2.27,2.27,0,0,1,1.5.11,2.41,2.41,0,0,1,.87,1.53,3.81,3.81,0,0,0,.26.79c.12.32.28.66.65.63a.8.8,0,0,0,.61-.68,13.14,13.14,0,0,0,.19-2.43,20.79,20.79,0,0,0,.11-2.43c-.14-1.08-.5-1.57-1.41-.95-1.28.8-1.49,1.43-2.69,1.21.38-16.88-.43-15.84,1-16.05a23.72,23.72,0,0,1,5.51,0c2.64.53,2,2.36,3,3.73.2.3.87.23,1.1-.6.08-.16,0-.2.09-.35.11-1.11.13-1.77.22-3.47A1,1,0,0,0,339.22,182.56Z"/><path class="cls-2" d="M353.87,182.6c-4.32-1.13-7,0-9,3.49-2.09,3.66-2.73,9.94-2.51,14.3s1.27,8.49,4.68,11.15c2.07,1.62,5.75,2,8,.35,2-1.41,3.27-3,4.38-6.77C361.4,197.86,361.1,184.49,353.87,182.6Zm3.71,22.17a12.47,12.47,0,0,1-3,5.82,2.86,2.86,0,0,1-4.27-.44c-2.26-3.55-1.74-9.2-1.54-14.12a48.49,48.49,0,0,1,1.47-9.81c.7-1.62,1.49-2.68,3.32-1.84,3.32,1.36,4.78,4.6,5.12,8.2A50.53,50.53,0,0,1,357.58,204.77Z"/><path class="cls-2" d="M378,209.33c0-.19-.28-.39-.43-.43-.46,0-.75.88-.83,1a1.22,1.22,0,0,1-2.08.13c-1-1.35-.78-5.49-3.65-7.16.36-.22.46-.34.74-.48,5.55-3.06,6.51-14.49.68-18.64-2.06-1.46-4.3-1.66-6.82-1.6a15.05,15.05,0,0,0-3,.15c-.73.17-1,.62-.31,1.21,1.38,1.2.77,2.51.91,5.17.06,3.62.25,20.58.26,22.56a8.58,8.58,0,0,1-1,.18,2,2,0,0,0-1.31,1.21.6.6,0,0,0,.09.74c.56.39.82-.56,2.08-.67,2-.18,4.21,1.13,5.86.13a2.86,2.86,0,0,0,1.39-2.24.32.32,0,0,0-.45-.32c-.45.26-.75,1.39-1.94,1.19v-7.07c1.91,0,1.9,1.41,2.65,3.21.82,2.8,1.12,4.19,3.34,5.07A2.81,2.81,0,0,0,378,210,3.35,3.35,0,0,0,378,209.33Zm-9.26-7a.94.94,0,0,1-.63-.17c0-18.39-.23-18.72,1.47-18.36,2.81.36,6.43,5.63,4.56,12.54a8.67,8.67,0,0,1-2.65,4.62A6.6,6.6,0,0,1,368.71,202.3Z"/><path class="cls-3" d="M258,140.86c-3,14.64-3.21,13.72-5.74,17.46a1.26,1.26,0,0,0,.32.18c8.18,2.12,16.8,3.67,28.47-2,8.86-4.33,10.51-9.82,17-20.45C293.83,137,288.74,142.76,258,140.86Z"/><path class="cls-3" d="M254.05,134a.94.94,0,0,0,.5.82c3.06,2,2,3.67,4.3,3.47,2.08-.18,21.65,3,39-5.19a3.74,3.74,0,0,0-1.19-.45c-22.89-6.06-31.43-18.65-44.74-16.47a8.17,8.17,0,0,1-1.93,6.57C250.92,124.42,253.62,128.39,254.05,134Z"/><path class="cls-3" d="M170.23,136.22c2.21-7,4.13-3.67,2.27-7.54-3.13,0-10.87-1.54-21.92,3-14.44,6-18.12,23.65-16,32.65C136.43,162.32,143.92,139.57,170.23,136.22Z"/><path class="cls-3" d="M170.08,138.87c-15.34,2.16-25.06,11.27-32.14,25a1.33,1.33,0,0,0,.67-.34c16.44-13.94,28.19.18,37.16-12.35-3.43-6.09-5-8.47-5.51-12A1.91,1.91,0,0,0,170.08,138.87Z"/><path class="cls-1" d="M225.81,137.93a3.21,3.21,0,0,0-.31.27c-15.27,17.08-31.85,1.74-43.68,8.26-1.5.82-3.13-.77-.54-2.1,6.37-3.29,11.17-1.93,18.85-.53-.95-2.53-2.91-4.07-4.57-5.82-10.4,2.88-13.68,4.08-21.13-5.51-1.43,2.81-3.44,4.87.38,11.66,3.64,6.46,8.58,16.2,13.8,19.12,6.16,3.44,8.76.22,20.19.25C219,163.55,230.21,153.2,225.81,137.93Z"/><path class="cls-1" d="M180.08,135.8c4.74,4.11,9.65,1.84,14.09.74-8.91-10.76-6.51-19.35-.52-22.93,2.43-1.45,3.9-.92,5.36-.86,1-3.71,2.67-7,5.81-9.47-.29-.27-.45-.45-.64-.59-10.08-7.92-16.44-10.14-26.64,1.5-1.42,1.62-1.31,2.43-.82,3.2,1.17,1.86,3.33,3.46.57,4.91-3.31,1.75-6.38.73-4.79,8.75C173.49,126,176,132.27,180.08,135.8Z"/><path class="cls-1" d="M210.66,98.41a9.15,9.15,0,0,1,10.91.87c13.56,11,17.78,15.31,14.35,27,3,.93,16.25-3.27,13.55-11.17a35.34,35.34,0,0,0-3.94-7.78c-.84-1.3-1.37-1.44-2.87-1-4.54,1.17-4.82.6-3.6-3.85.46-1.68-.5-2.85-3.33-4.49-8.37-4.88-6.59-4.89-12.34-8.47-9.08-5.66-15.63,8.9-14.75,10.35C209.31,99.33,210,98.84,210.66,98.41Z"/><path class="cls-1" d="M248.54,124.25a.67.67,0,0,0-.23,0,19.74,19.74,0,0,1-13.47,4.07,1,1,0,0,0-.71.28c-2.93,3.13-8.17,4.1-8.15,6.21a1.7,1.7,0,0,1,1.5,1.2,24.17,24.17,0,0,1,.94,15.05C247.65,145.13,256.92,141.7,248.54,124.25Z"/><path class="cls-1" d="M254.15,137c-.12.1-.16.12-.17.15-.76,2.74-1.5,5.59-5.18,8.08-6.59,4.44-12.93,6-21,8.63a1.72,1.72,0,0,0-1,.84,22.57,22.57,0,0,1-12.35,10.18c4.72,2.78,15,3.06,19.06.52-.38-6.19,1.52-5.88,5.54-3.09a1.67,1.67,0,0,0,1.84.1c12.14-6.26,11-6.34,14.15-19.12C255.58,141,256.44,139.15,254.15,137Z"/><path class="cls-1" d="M201.11,114.26a.65.65,0,0,0,.16-.07c.93-1.08,3.17-5,10-3a1,1,0,0,0,1,0c3-1.87,7.5.81,9.67,2.85a12.67,12.67,0,0,1,12.59,3.76c-.31-2.19-2-5.63-5.59-8.92-10-9.13-12.39-12.49-19.2-6.9-5.86,4.82-6.71,5.46-9.51,11.49Z"/><path class="cls-1" d="M200.17,116.65c-1.13-2.68-4.35-2.39-6.59-.43-5,4.39-3.08,12.2.6,16.67,5.35,6.48,5.89,5.57,8.39,11.28a29.31,29.31,0,0,0,7.6-.06c.16-4.69-2.52-4.88-9.31-13.68-2.65-3.44-3.76-7.84-1.35-11.77C200,117.82,200.54,117.54,200.17,116.65Z"/><path class="cls-1" d="M225.42,131.66c-11,.81,1.25.31-18.17,1.53a6.07,6.07,0,0,0-.89.18c3.22,3.65,6.34,5.95,5.5,10.39a2.58,2.58,0,0,0,.4,0c4.2-.83,10.13-4.31,10.05-5.84C222.11,134.4,224.38,132.77,225.42,131.66Z"/><path class="cls-1" d="M203.74,119.25c2.8,3.57,9.85,5.42,12.36,11.54,1.16-.16,2.35-.3,3.52-.49s2.2-3.53,2.39-4.67c-1.79.17-6,1.35-10.71-3.09-4-3.76-1.71-7.84-1.07-9.71C205.25,111.34,200.75,115.42,203.74,119.25Z"/><path class="cls-1" d="M201.56,119.83c-2.79,3.91.37,8.45,3.48,12.11,3-1.28,6.12-1,9.2-1.09-.07-1.39-5-5-6.3-5.83-2.32-1.44-4.65-2.89-6.28-5.18C201.65,119.82,201.6,119.83,201.56,119.83Z"/><path class="cls-1" d="M216.38,116.59c2.68.15,4.32,2.63,6,4.67.63-4.24-2.75-7.59-7-8.68a2.65,2.65,0,0,0-2.75,1c-5.39,6,4.76,12.79,9.34,10a37.23,37.23,0,0,0-3.47-4c-1.35-1.1-2.84-1.68-3.06,0-.11.9.08,1.88-.83,2C212.76,121.73,212.75,116.4,216.38,116.59Z"/><path class="cls-1" d="M234.17,121.54c-1-3.74-6.56-6.3-8.26-5.82,3.29,2.43,4.25,6.15,2.5,9.57A15.87,15.87,0,0,1,224.6,130C230.81,130.24,235.11,125,234.17,121.54Z"/><path class="cls-1" d="M223.79,116.82a17.12,17.12,0,0,1-.74,11.92C227.84,125.86,229.3,118.4,223.79,116.82Z"/></svg>